<svg xmlns="http://www.w3.org/2000/svg" width="24" height="24" viewBox="0 0 24 24" fill="none"><path fill-rule="evenodd" clip-rule="evenodd" d="M3.29655 0.333252H7.23988C8.88488 0.333252 10.2032 1.67492 10.2032 3.32109V7.29825C10.2032 8.95492 8.88488 10.2849 7.23988 10.2849H3.29655C1.66321 10.2849 0.333214 8.95492 0.333214 7.29825V3.32109C0.333214 1.67492 1.66321 0.333252 3.29655 0.333252ZM3.29655 13.7146H7.23988C8.88488 13.7146 10.2032 15.0457 10.2032 16.7024V20.6796C10.2032 22.3246 8.88488 23.6662 7.23988 23.6662H3.29655C1.66321 23.6662 0.333214 22.3246 0.333214 20.6796V16.7024C0.333214 15.0457 1.66321 13.7146 3.29655 13.7146ZM20.7033 0.333252H16.76C15.115 0.333252 13.7967 1.67492 13.7967 3.32109V7.29825C13.7967 8.95492 15.115 10.2849 16.76 10.2849H20.7033C22.3367 10.2849 23.6667 8.95492 23.6667 7.29825V3.32109C23.6667 1.67492 22.3367 0.333252 20.7033 0.333252ZM16.76 13.7146H20.7033C22.3367 13.7146 23.6667 15.0457 23.6667 16.7024V20.6796C23.6667 22.3246 22.3367 23.6662 20.7033 23.6662H16.76C15.115 23.6662 13.7967 22.3246 13.7967 20.6796V16.7024C13.7967 15.0457 15.115 13.7146 16.76 13.7146Z" fill="white"></path></svg>